<svg width="432" height="432" viewBox="0 0 432 432" fill="none" xmlns="http://www.w3.org/2000/svg">
    <path d="M216 50C133.203 50 50 133.203 50 216C50 298.797 133.203 382 216 382C298.797 382 382 298.797 382 216C382 133.203 298.797 50 216 50ZM216 350C150.533 350 82 281.467 82 216C82 150.533 150.533 82 216 82C281.467 82 350 150.533 350 216C350 281.467 281.467 350 216 350Z" fill="#FFFFFF"/>
    <path d="M216 114C179.863 114 114 179.863 114 216C114 252.137 179.863 318 216 318C252.137 318 318 252.137 318 216C318 179.863 252.137 114 216 114ZM216 286C197.536 286 146 234.464 146 216C146 197.536 197.536 146 216 146C234.464 146 286 197.536 286 216C286 234.464 234.464 286 216 286Z" fill="#FFFFFF"/>
</svg>
