<svg width="456" height="456" viewBox="0 0 456 456" fill="none" xmlns="http://www.w3.org/2000/svg">
    <rect width="456" height="456" rx="228" fill="#512BD4"/>
    <path d="M228 100C158.203 100 100 158.203 100 228C100 297.797 158.203 356 228 356C297.797 356 356 297.797 356 228C356 158.203 297.797 100 228 100ZM228 324C175.533 324 132 280.467 132 228C132 175.533 175.533 132 228 132C280.467 132 324 175.533 324 228C324 280.467 280.467 324 228 324Z" fill="white"/>
    <path d="M228 164C194.863 164 164 194.863 164 228C164 261.137 194.863 292 228 292C261.137 292 292 261.137 292 228C292 194.863 261.137 164 228 164ZM228 260C212.536 260 196 243.464 196 228C196 212.536 212.536 196 228 196C243.464 196 260 212.536 260 228C260 243.464 243.464 260 228 260Z" fill="white"/>
</svg>
